<svg xmlns="http://www.w3.org/2000/svg" viewBox="0 0 200 200" fill="none">
  <defs>
    <linearGradient id="goldGrad" x1="0%" y1="0%" x2="100%" y2="100%">
      <stop offset="0%" stop-color="#FBF7EE"/>
      <stop offset="35%" stop-color="#E5D1AA"/>
      <stop offset="70%" stop-color="#CDB486"/>
      <stop offset="100%" stop-color="#8F784B"/>
    </linearGradient>
    <linearGradient id="glassBg" x1="0%" y1="0%" x2="100%" y2="100%">
      <stop offset="0%" stop-color="#181D26" stop-opacity="0.9"/>
      <stop offset="100%" stop-color="#080C12" stop-opacity="0.95"/>
    </linearGradient>
    <filter id="goldGlow" x="-20%" y="-20%" width="140%" height="140%">
      <feDropShadow dx="0" dy="2" stdDeviation="4" flood-color="#CDB486" flood-opacity="0.4"/>
    </filter>
  </defs>
  <circle cx="100" cy="100" r="92" fill="url(#glassBg)" stroke="url(#goldGrad)" stroke-width="2.5" />
  <circle cx="100" cy="100" r="85" stroke="#CDB486" stroke-width="0.75" stroke-opacity="0.3" stroke-dasharray="3 3"/>
  <g filter="url(#goldGlow)" fill="url(#goldGrad)" stroke="#12161F" stroke-width="0.5">
    <polygon points="100,75 118,102 95,115 88,95" fill-opacity="0.95"/>
    <polygon points="118,102 145,55 105,72" fill-opacity="0.9"/>
    <polygon points="118,102 135,78 110,85" fill-opacity="0.8"/>
    <polygon points="88,95 72,92 50,88 74,98" fill-opacity="1"/>
    <circle cx="75" cy="94" r="1.5" fill="#030508"/>
    <polygon points="95,115 110,148 102,125" fill-opacity="0.85"/>
    <polygon points="102,125 125,160 108,120" fill-opacity="0.75"/>
    <polygon points="88,95 95,115 82,108" fill-opacity="0.7"/>
  </g>
</svg>